<svg xmlns="http://www.w3.org/2000/svg"><symbol id="Arrow" viewBox="0 0 19 8"><path d="M.646 4.354a.5.5 0 0 1 0-.708L3.828.464a.5.5 0 1 1 .708.708L1.707 4l2.829 2.828a.5.5 0 1 1-.708.708L.646 4.354zM19 4.5H1v-1h18v1z" fill="#002DCB"/></symbol><symbol id="lazy" viewBox="0 0 100 100" preserveAspectRatio="xMidYMid"><rect x="47" y="24" rx="3" ry="6" width="6" height="12" fill="#fe718d" style="animation-play-state:running;animation-delay:0s"><animate attributeName="opacity" values="1;0" keyTimes="0;1" dur="1s" begin="-0.9166666666666666s" repeatCount="indefinite"/></rect><rect x="47" y="24" rx="3" ry="6" width="6" height="12" fill="#fe718d" style="animation-play-state:running;animation-delay:0s" transform="rotate(30 50 50)"><animate attributeName="opacity" values="1;0" keyTimes="0;1" dur="1s" begin="-0.8333333333333334s" repeatCount="indefinite"/></rect><rect x="47" y="24" rx="3" ry="6" width="6" height="12" fill="#fe718d" style="animation-play-state:running;animation-delay:0s" transform="rotate(60 50 50)"><animate attributeName="opacity" values="1;0" keyTimes="0;1" dur="1s" begin="-0.75s" repeatCount="indefinite"/></rect><rect x="47" y="24" rx="3" ry="6" width="6" height="12" fill="#fe718d" style="animation-play-state:running;animation-delay:0s" transform="rotate(90 50 50)"><animate attributeName="opacity" values="1;0" keyTimes="0;1" dur="1s" begin="-0.6666666666666666s" repeatCount="indefinite"/></rect><rect x="47" y="24" rx="3" ry="6" width="6" height="12" fill="#fe718d" style="animation-play-state:running;animation-delay:0s" transform="rotate(120 50 50)"><animate attributeName="opacity" values="1;0" keyTimes="0;1" dur="1s" begin="-0.5833333333333334s" repeatCount="indefinite"/></rect><rect x="47" y="24" rx="3" ry="6" width="6" height="12" fill="#fe718d" style="animation-play-state:running;animation-delay:0s" transform="rotate(150 50 50)"><animate attributeName="opacity" values="1;0" keyTimes="0;1" dur="1s" begin="-0.5s" repeatCount="indefinite"/></rect><rect x="47" y="24" rx="3" ry="6" width="6" height="12" fill="#fe718d" style="animation-play-state:running;animation-delay:0s" transform="rotate(180 50 50)"><animate attributeName="opacity" values="1;0" keyTimes="0;1" dur="1s" begin="-0.4166666666666667s" repeatCount="indefinite"/></rect><rect x="47" y="24" rx="3" ry="6" width="6" height="12" fill="#fe718d" style="animation-play-state:running;animation-delay:0s" transform="rotate(210 50 50)"><animate attributeName="opacity" values="1;0" keyTimes="0;1" dur="1s" begin="-0.3333333333333333s" repeatCount="indefinite"/></rect><rect x="47" y="24" rx="3" ry="6" width="6" height="12" fill="#fe718d" style="animation-play-state:running;animation-delay:0s" transform="rotate(240 50 50)"><animate attributeName="opacity" values="1;0" keyTimes="0;1" dur="1s" begin="-0.25s" repeatCount="indefinite"/></rect><rect x="47" y="24" rx="3" ry="6" width="6" height="12" fill="#fe718d" style="animation-play-state:running;animation-delay:0s" transform="rotate(270 50 50)"><animate attributeName="opacity" values="1;0" keyTimes="0;1" dur="1s" begin="-0.16666666666666666s" repeatCount="indefinite"/></rect><rect x="47" y="24" rx="3" ry="6" width="6" height="12" fill="#fe718d" style="animation-play-state:running;animation-delay:0s" transform="rotate(300 50 50)"><animate attributeName="opacity" values="1;0" keyTimes="0;1" dur="1s" begin="-0.08333333333333333s" repeatCount="indefinite"/></rect><rect x="47" y="24" rx="3" ry="6" width="6" height="12" fill="#fe718d" style="animation-play-state:running;animation-delay:0s" transform="rotate(330 50 50)"><animate attributeName="opacity" values="1;0" keyTimes="0;1" dur="1s" begin="0s" repeatCount="indefinite"/></rect></symbol><symbol id="lock-square" viewBox="0 0 24 24"><path d="M5 22h14a3 3 0 0 0 3-3v-9a3 3 0 0 0-3-3h-2V6A5 5 0 0 0 7 6v1H5a3 3 0 0 0-3 3v9a3 3 0 0 0 3 3zM9 6a3 3 0 1 1 6 0v1H9V6zm-5 4a1 1 0 0 1 1-1h14a1 1 0 0 1 1 1v9a1 1 0 0 1-1 1H5a1 1 0 0 1-1-1v-9zm6 4.5a2 2 0 1 1 4 0 2 2 0 0 1-4 0z" fill="#fff" fill-opacity=".5"/></symbol><symbol id="user" viewBox="0 0 24 24"><path d="M12 11a5 5 0 1 0 0-10 5 5 0 0 0 0 10zm0-8a3 3 0 1 1 0 6 3 3 0 0 1 0-6zM4 23h16a1 1 0 0 0 1-1v-4a5.006 5.006 0 0 0-5-5H8a5.006 5.006 0 0 0-5 5v4a1 1 0 0 0 1 1zm1-5a3 3 0 0 1 3-3h8a3 3 0 0 1 3 3v3H5v-3z" fill="#fff"/></symbol></svg>